<svg width="25" height="25" viewBox="0 0 25 25" fill="none" xmlns="http://www.w3.org/2000/svg">
<path d="M15.5 3.5C16.0046 3.49984 16.4906 3.69041 16.8605 4.0335C17.2305 4.37659 17.4572 4.84684 17.495 5.35L17.5 5.5C17.5 5.74493 17.59 5.98134 17.7527 6.16437C17.9155 6.34741 18.1397 6.46434 18.383 6.493L18.5 6.5H19.5C20.2652 6.49996 21.0015 6.79233 21.5583 7.31728C22.115 7.84224 22.4501 8.56011 22.495 9.324L22.5 9.5V18.5C22.5 19.2652 22.2077 20.0015 21.6827 20.5583C21.1578 21.115 20.4399 21.4501 19.676 21.495L19.5 21.5H5.5C4.73479 21.5 3.99849 21.2077 3.44174 20.6827C2.88499 20.1578 2.54989 19.4399 2.505 18.676L2.5 18.5V9.5C2.49996 8.73479 2.79233 7.99849 3.31728 7.44174C3.84224 6.88499 4.56011 6.54989 5.324 6.505L5.5 6.5H6.5C6.76522 6.5 7.01957 6.39464 7.20711 6.20711C7.39464 6.01957 7.5 5.76522 7.5 5.5C7.49984 4.99542 7.69041 4.50943 8.0335 4.13945C8.37659 3.76947 8.84685 3.54284 9.35 3.505L9.5 3.5H15.5ZM12.5 10.5C11.7566 10.4999 11.0396 10.7759 10.4881 11.2744C9.93662 11.7729 9.58984 12.4584 9.515 13.198L9.504 13.35L9.5 13.5L9.504 13.65C9.53335 14.2362 9.73402 14.801 10.0812 15.2743C10.4283 15.7476 10.9067 16.1087 11.457 16.3128C12.0074 16.5169 12.6055 16.5551 13.1773 16.4226C13.7491 16.2901 14.2695 15.9928 14.674 15.5675C15.0786 15.1422 15.3494 14.6076 15.4531 14.0298C15.5568 13.4521 15.4887 12.8566 15.2572 12.3172C15.0258 11.7778 14.6412 11.3181 14.1511 10.9951C13.6611 10.6721 13.087 10.5 12.5 10.5Z" fill="black" fill-opacity="0.8"/>
</svg>
