<svg width="17" height="14" viewBox="0 0 17 14" fill="none" xmlns="http://www.w3.org/2000/svg">
<path d="M0.587891 1.5C0.587891 1.30109 0.663473 1.11032 0.79801 0.96967C0.932547 0.829018 1.11502 0.75 1.30528 0.75H15.6531C15.8434 0.75 16.0258 0.829018 16.1604 0.96967C16.2949 1.11032 16.3705 1.30109 16.3705 1.5C16.3705 1.69891 16.2949 1.88968 16.1604 2.03033C16.0258 2.17098 15.8434 2.25 15.6531 2.25H1.30528C1.11502 2.25 0.932547 2.17098 0.79801 2.03033C0.663473 1.88968 0.587891 1.69891 0.587891 1.5ZM0.587891 7C0.587891 6.80109 0.663473 6.61032 0.79801 6.46967C0.932547 6.32902 1.11502 6.25 1.30528 6.25H15.6531C15.8434 6.25 16.0258 6.32902 16.1604 6.46967C16.2949 6.61032 16.3705 6.80109 16.3705 7C16.3705 7.19891 16.2949 7.38968 16.1604 7.53033C16.0258 7.67098 15.8434 7.75 15.6531 7.75H1.30528C1.11502 7.75 0.932547 7.67098 0.79801 7.53033C0.663473 7.38968 0.587891 7.19891 0.587891 7ZM0.587891 12.5C0.587891 12.3011 0.663473 12.1103 0.79801 11.9697C0.932547 11.829 1.11502 11.75 1.30528 11.75H15.6531C15.8434 11.75 16.0258 11.829 16.1604 11.9697C16.2949 12.1103 16.3705 12.3011 16.3705 12.5C16.3705 12.6989 16.2949 12.8897 16.1604 13.0303C16.0258 13.171 15.8434 13.25 15.6531 13.25H1.30528C1.11502 13.25 0.932547 13.171 0.79801 13.0303C0.663473 12.8897 0.587891 12.6989 0.587891 12.5Z" fill="black"/>
</svg>
