<svg width="28" height="28" viewBox="0 0 28 28" fill="none" xmlns="http://www.w3.org/2000/svg">
<path d="M9.33333 11.0835C8.94656 11.0835 8.57563 11.2371 8.30214 11.5106C8.02865 11.7841 7.875 12.1551 7.875 12.5418C7.875 12.9286 8.02865 13.2995 8.30214 13.573C8.57563 13.8465 8.94656 14.0002 9.33333 14.0002C9.72011 14.0002 10.091 13.8465 10.3645 13.573C10.638 13.2995 10.7917 12.9286 10.7917 12.5418C10.7917 12.1551 10.638 11.7841 10.3645 11.5106C10.091 11.2371 9.72011 11.0835 9.33333 11.0835ZM14 11.0835C13.6132 11.0835 13.2423 11.2371 12.9688 11.5106C12.6953 11.7841 12.5417 12.1551 12.5417 12.5418C12.5417 12.9286 12.6953 13.2995 12.9688 13.573C13.2423 13.8465 13.6132 14.0002 14 14.0002C14.3868 14.0002 14.7577 13.8465 15.0312 13.573C15.3047 13.2995 15.4583 12.9286 15.4583 12.5418C15.4583 12.1551 15.3047 11.7841 15.0312 11.5106C14.7577 11.2371 14.3868 11.0835 14 11.0835ZM17.2083 12.5418C17.2083 12.1551 17.362 11.7841 17.6355 11.5106C17.909 11.2371 18.2799 11.0835 18.6667 11.0835C19.0534 11.0835 19.4244 11.2371 19.6979 11.5106C19.9714 11.7841 20.125 12.1551 20.125 12.5418C20.125 12.9286 19.9714 13.2995 19.6979 13.573C19.4244 13.8465 19.0534 14.0002 18.6667 14.0002C18.2799 14.0002 17.909 13.8465 17.6355 13.573C17.362 13.2995 17.2083 12.9286 17.2083 12.5418Z" fill="black"/>
<path fill-rule="evenodd" clip-rule="evenodd" d="M18.7832 5.35838C15.6403 5.09044 12.4809 5.07483 9.3355 5.31171L9.11034 5.32921C7.66414 5.43835 6.31257 6.08981 5.32628 7.15311C4.33999 8.21642 3.7918 9.61307 3.7915 11.0634V20.9999C3.79164 21.1511 3.83098 21.2998 3.9057 21.4313C3.98042 21.5628 4.08796 21.6727 4.21782 21.7503C4.34768 21.8279 4.49544 21.8705 4.64667 21.8739C4.79789 21.8773 4.94742 21.8415 5.08067 21.7699L9.64234 19.3187C9.855 19.2044 10.0927 19.1447 10.3342 19.1449H20.8062C22.1268 19.1449 23.2585 18.1999 23.4953 16.9014C23.976 14.2682 24.0133 11.5732 23.6073 8.92721L23.4883 8.14671C23.3825 7.45717 23.048 6.82321 22.5385 6.34671C22.029 5.8702 21.3741 5.57882 20.679 5.51938L18.7832 5.35838ZM9.4685 7.05705C12.5207 6.82637 15.5864 6.84119 18.6362 7.10138L20.5308 7.26355C21.1562 7.31721 21.6648 7.79205 21.7593 8.41271L21.8795 9.19205C22.2545 11.646 22.2191 14.1452 21.7745 16.5875C21.7339 16.8143 21.6147 17.0196 21.4378 17.1672C21.261 17.3149 21.0377 17.3955 20.8073 17.3949H10.3342C9.804 17.395 9.28211 17.5264 8.81517 17.7775L5.5415 19.5369V11.0634C5.54156 10.0544 5.92276 9.08272 6.60876 8.34286C7.29476 7.60299 8.23492 7.14957 9.241 7.07338L9.4685 7.05705Z" fill="black"/>
</svg>
