<svg width="21" height="17" viewBox="0 0 21 17" fill="none" xmlns="http://www.w3.org/2000/svg">
<path fill-rule="evenodd" clip-rule="evenodd" d="M6.3355 0.311759C9.4813 0.0748192 12.641 0.0904247 15.7843 0.358426L17.679 0.519426C18.3741 0.578868 19.029 0.870251 19.5385 1.34676C20.048 1.82326 20.3825 2.45722 20.4883 3.14676L20.6073 3.92726C21.0122 6.57315 20.9743 9.26795 20.4953 11.9014C20.3813 12.5313 20.0495 13.1011 19.5579 13.5112C19.0664 13.9213 18.4463 14.1456 17.8062 14.1449H7.33417C7.09267 14.1449 6.85584 14.2044 6.6435 14.3188L2.08067 16.7711C1.94734 16.8427 1.7977 16.8786 1.64637 16.8751C1.49505 16.8716 1.34722 16.8289 1.21732 16.7512C1.08742 16.6735 0.979904 16.5635 0.905269 16.4318C0.830634 16.3001 0.791436 16.1513 0.791504 15.9999V6.06343C0.791804 4.61312 1.33999 3.21647 2.32628 2.15316C3.31257 1.08985 4.66414 0.438399 6.11034 0.329259L6.3355 0.311759ZM6.33317 6.08326C5.9464 6.08326 5.57546 6.2369 5.30197 6.5104C5.02848 6.78389 4.87484 7.15482 4.87484 7.54159C4.87484 7.92837 5.02848 8.2993 5.30197 8.57279C5.57546 8.84628 5.9464 8.99993 6.33317 8.99993C6.71994 8.99993 7.09088 8.84628 7.36437 8.57279C7.63786 8.2993 7.7915 7.92837 7.7915 7.54159C7.7915 7.15482 7.63786 6.78389 7.36437 6.5104C7.09088 6.2369 6.71994 6.08326 6.33317 6.08326ZM10.9998 6.08326C10.6131 6.08326 10.2421 6.2369 9.96864 6.5104C9.69515 6.78389 9.5415 7.15482 9.5415 7.54159C9.5415 7.92837 9.69515 8.2993 9.96864 8.57279C10.2421 8.84628 10.6131 8.99993 10.9998 8.99993C11.3866 8.99993 11.7575 8.84628 12.031 8.57279C12.3045 8.2993 12.4582 7.92837 12.4582 7.54159C12.4582 7.15482 12.3045 6.78389 12.031 6.5104C11.7575 6.2369 11.3866 6.08326 10.9998 6.08326ZM14.2082 7.54159C14.2082 7.15482 14.3618 6.78389 14.6353 6.5104C14.9088 6.2369 15.2797 6.08326 15.6665 6.08326C16.0533 6.08326 16.4242 6.2369 16.6977 6.5104C16.9712 6.78389 17.1248 7.15482 17.1248 7.54159C17.1248 7.92837 16.9712 8.2993 16.6977 8.57279C16.4242 8.84628 16.0533 8.99993 15.6665 8.99993C15.2797 8.99993 14.9088 8.84628 14.6353 8.57279C14.3618 8.2993 14.2082 7.92837 14.2082 7.54159Z" fill="black"/>
</svg>
