<svg fill="black" width="28" height="28" viewBox="0 0 28 28" fill="none" xmlns="http://www.w3.org/2000/svg">
<path fill-rule="evenodd" clip-rule="evenodd" d="M8.4735 3.8035C8.54259 3.15951 8.84731 2.5638 9.32908 2.13092C9.81085 1.69803 10.4357 1.45854 11.0833 1.4585H16.9167C17.5643 1.45854 18.1891 1.69803 18.6709 2.13092C19.1527 2.5638 19.4574 3.15951 19.5265 3.8035C20.4178 3.82216 21.1867 3.86766 21.8447 3.989C22.729 4.15233 23.4815 4.46033 24.094 5.074C24.7963 5.77516 25.0973 6.66066 25.2397 7.71066C25.375 8.721 25.375 10.0078 25.375 11.6027V18.731C25.375 20.3258 25.375 21.6127 25.2397 22.6242C25.0973 23.6742 24.7963 24.5585 24.094 25.2608C23.3917 25.9632 22.5073 26.2642 21.4573 26.4065C20.4458 26.5418 19.159 26.5418 17.5642 26.5418H10.4358C8.841 26.5418 7.55417 26.5418 6.54267 26.4065C5.49267 26.2642 4.60833 25.9632 3.906 25.2608C3.20367 24.5585 2.90267 23.6742 2.7615 22.6242C2.625 21.6127 2.625 20.3258 2.625 18.731V11.6027C2.625 10.0078 2.625 8.721 2.7615 7.7095C2.9015 6.6595 3.20483 5.77516 3.906 5.07283C4.5185 4.46033 5.271 4.15116 6.15533 3.989C6.81333 3.86766 7.58333 3.82216 8.4735 3.8035ZM10.2083 4.668V5.25016C10.2083 5.73316 10.6003 6.12516 11.0833 6.12516H16.9167C17.1487 6.12516 17.3713 6.03298 17.5354 5.86888C17.6995 5.70479 17.7917 5.48223 17.7917 5.25016V4.0835C17.7917 3.85143 17.6995 3.62887 17.5354 3.46478C17.3713 3.30068 17.1487 3.2085 16.9167 3.2085H11.0833C10.8513 3.2085 10.6287 3.30068 10.4646 3.46478C10.3005 3.62887 10.2083 3.85143 10.2083 4.0835V4.668ZM19.5242 5.55466C19.4495 6.19382 19.1427 6.78329 18.662 7.2111C18.1813 7.6389 17.5602 7.87522 16.9167 7.87516H11.0833C10.4397 7.87518 9.8184 7.6387 9.33766 7.21066C8.85692 6.78262 8.55021 6.19287 8.47583 5.5535C7.63817 5.57216 6.99183 5.61416 6.4715 5.70983C5.81117 5.83116 5.42733 6.02716 5.14383 6.31066C4.82067 6.63383 4.61067 7.0865 4.49517 7.944C4.37733 8.82366 4.375 9.99266 4.375 11.6668V18.6668C4.375 20.341 4.37733 21.5088 4.49517 22.3908C4.61067 23.2472 4.82183 23.6998 5.14383 24.023C5.467 24.3462 5.91967 24.5562 6.77717 24.6717C7.65683 24.7895 8.82583 24.7918 10.5 24.7918H17.5C19.1742 24.7918 20.342 24.7895 21.224 24.6717C22.0803 24.5562 22.533 24.345 22.8562 24.023C23.1793 23.6998 23.3893 23.2472 23.5048 22.3897C23.6227 21.5088 23.625 20.341 23.625 18.6668V11.6668C23.625 9.99266 23.6227 8.82366 23.5048 7.94283C23.3893 7.0865 23.1782 6.63383 22.8562 6.31066C22.5715 6.02716 22.1888 5.83233 21.5285 5.70983C21.0082 5.61416 20.3618 5.57216 19.5242 5.55466ZM7.29167 16.9168C7.29167 16.6848 7.38385 16.4622 7.54795 16.2981C7.71204 16.134 7.9346 16.0418 8.16667 16.0418H17.5C17.7321 16.0418 17.9546 16.134 18.1187 16.2981C18.2828 16.4622 18.375 16.6848 18.375 16.9168C18.375 17.1489 18.2828 17.3715 18.1187 17.5355C17.9546 17.6996 17.7321 17.7918 17.5 17.7918H8.16667C7.9346 17.7918 7.71204 17.6996 7.54795 17.5355C7.38385 17.3715 7.29167 17.1489 7.29167 16.9168ZM7.29167 21.0002C7.29167 20.7681 7.38385 20.5455 7.54795 20.3814C7.71204 20.2173 7.9346 20.1252 8.16667 20.1252H14.5833C14.8154 20.1252 15.038 20.2173 15.2021 20.3814C15.3661 20.5455 15.4583 20.7681 15.4583 21.0002C15.4583 21.2322 15.3661 21.4548 15.2021 21.6189C15.038 21.783 14.8154 21.8752 14.5833 21.8752H8.16667C7.9346 21.8752 7.71204 21.783 7.54795 21.6189C7.38385 21.4548 7.29167 21.2322 7.29167 21.0002Z" fill="black"/>
</svg>
