<svg width="22" height="22" viewBox="0 0 22 22" fill="none" xmlns="http://www.w3.org/2000/svg">
<path fill-rule="evenodd" clip-rule="evenodd" d="M4.58333 0.709961C3.11567 0.791628 2.18933 1.02496 1.5255 1.68996C0.5 2.71546 0.5 4.36513 0.5 7.66446V14.6645C0.5 17.965 0.5 19.6146 1.5255 20.6401C2.54983 21.6645 4.20067 21.6645 7.5 21.6645H14.5C17.7993 21.6645 19.4502 21.6645 20.4745 20.6401C21.5 19.6135 21.5 17.965 21.5 14.6645V7.66446C21.5 4.36513 21.5 2.71546 20.4745 1.68996C19.8107 1.02496 18.8843 0.791628 17.4167 0.709961V1.25013C17.4167 2.17839 17.0479 3.06862 16.3915 3.725C15.7352 4.38138 14.8449 4.75013 13.9167 4.75013H8.08333C7.15508 4.75013 6.26484 4.38138 5.60846 3.725C4.95208 3.06862 4.58333 2.17839 4.58333 1.25013V0.709961ZM5.16667 12.0418C4.9346 12.0418 4.71204 12.134 4.54795 12.2981C4.38385 12.4622 4.29167 12.6847 4.29167 12.9168C4.29167 13.1489 4.38385 13.3714 4.54795 13.5355C4.71204 13.6996 4.9346 13.7918 5.16667 13.7918H14.5C14.7321 13.7918 14.9546 13.6996 15.1187 13.5355C15.2828 13.3714 15.375 13.1489 15.375 12.9168C15.375 12.6847 15.2828 12.4622 15.1187 12.2981C14.9546 12.134 14.7321 12.0418 14.5 12.0418H5.16667ZM5.16667 16.1251C4.9346 16.1251 4.71204 16.2173 4.54795 16.3814C4.38385 16.5455 4.29167 16.7681 4.29167 17.0001C4.29167 17.2322 4.38385 17.4548 4.54795 17.6188C4.71204 17.7829 4.9346 17.8751 5.16667 17.8751H11.5833C11.8154 17.8751 12.038 17.7829 12.2021 17.6188C12.3661 17.4548 12.4583 17.2322 12.4583 17.0001C12.4583 16.7681 12.3661 16.5455 12.2021 16.3814C12.038 16.2173 11.8154 16.1251 11.5833 16.1251H5.16667Z" fill="black"/>
</svg>
