<svg width="19" height="18" viewBox="0 0 19 18" fill="none" xmlns="http://www.w3.org/2000/svg">
<path fill-rule="evenodd" clip-rule="evenodd" d="M9.50033 0.0416718C4.55283 0.0416718 0.541992 4.05251 0.541992 9C0.541992 10.5467 0.934492 12.0042 1.62533 13.275L0.969492 16.8025C0.951037 16.9022 0.957108 17.0049 0.98718 17.1017C1.01725 17.1985 1.07042 17.2865 1.14211 17.3582C1.21379 17.4299 1.30184 17.4831 1.39865 17.5131C1.49547 17.5432 1.59814 17.5493 1.69783 17.5308L5.22533 16.8742C6.53706 17.5878 8.00702 17.9606 9.50033 17.9583C14.4478 17.9583 18.4587 13.9475 18.4587 9C18.4587 4.05251 14.4478 0.0416718 9.50033 0.0416718ZM13.667 7.95834C13.3907 7.95834 13.1258 8.06808 12.9304 8.26344C12.7351 8.45879 12.6253 8.72374 12.6253 9C12.6253 9.27627 12.7351 9.54122 12.9304 9.73657C13.1258 9.93192 13.3907 10.0417 13.667 10.0417C13.9433 10.0417 14.2082 9.93192 14.4036 9.73657C14.5989 9.54122 14.7087 9.27627 14.7087 9C14.7087 8.72374 14.5989 8.45879 14.4036 8.26344C14.2082 8.06808 13.9433 7.95834 13.667 7.95834ZM8.45866 9C8.45866 8.72374 8.56841 8.45879 8.76376 8.26344C8.95911 8.06808 9.22406 7.95834 9.50033 7.95834C9.77659 7.95834 10.0415 8.06808 10.2369 8.26344C10.4322 8.45879 10.542 8.72374 10.542 9C10.542 9.27627 10.4322 9.54122 10.2369 9.73657C10.0415 9.93192 9.77659 10.0417 9.50033 10.0417C9.22406 10.0417 8.95911 9.93192 8.76376 9.73657C8.56841 9.54122 8.45866 9.27627 8.45866 9ZM5.33366 7.95834C5.05739 7.95834 4.79244 8.06808 4.59709 8.26344C4.40174 8.45879 4.29199 8.72374 4.29199 9C4.29199 9.27627 4.40174 9.54122 4.59709 9.73657C4.79244 9.93192 5.05739 10.0417 5.33366 10.0417C5.60993 10.0417 5.87488 9.93192 6.07023 9.73657C6.26558 9.54122 6.37533 9.27627 6.37533 9C6.37533 8.72374 6.26558 8.45879 6.07023 8.26344C5.87488 8.06808 5.60993 7.95834 5.33366 7.95834Z" fill="black" fill-opacity="0.4"/>
</svg>
