<svg width="24" height="23" viewBox="0 0 24 23" fill="none" xmlns="http://www.w3.org/2000/svg">
<path fill-rule="evenodd" clip-rule="evenodd" d="M10.5671 1.13615C10.9767 0.817523 11.4809 0.644531 11.9998 0.644531C12.5187 0.644531 13.0229 0.817523 13.4325 1.13615L23.2138 8.74282C24.0923 9.42765 23.607 10.8335 22.4963 10.8335H21.3331V20.1668C21.3331 20.7857 21.0873 21.3792 20.6497 21.8167C20.2121 22.2543 19.6186 22.5002 18.9998 22.5002H4.9998C4.38096 22.5002 3.78746 22.2543 3.34988 21.8167C2.91229 21.3792 2.66646 20.7857 2.66646 20.1668V10.8335H1.5033C0.391462 10.8335 -0.0915378 9.42648 0.785796 8.74398L10.5671 1.13615Z" fill="black"/>
</svg>
