<svg width="28" height="28" viewBox="0 0 28 28" fill="none" xmlns="http://www.w3.org/2000/svg">
<path fill-rule="evenodd" clip-rule="evenodd" d="M12.5671 3.13615C12.9767 2.81752 13.4809 2.64453 13.9998 2.64453C14.5187 2.64453 15.0229 2.81752 15.4325 3.13615L25.2138 10.7428C26.0923 11.4277 25.607 12.8335 24.4963 12.8335H23.3331V22.1668C23.3331 22.7857 23.0873 23.3792 22.6497 23.8167C22.2121 24.2543 21.6186 24.5002 20.9998 24.5002H6.9998C6.38096 24.5002 5.78746 24.2543 5.34988 23.8167C4.91229 23.3792 4.66646 22.7857 4.66646 22.1668V12.8335H3.5033C2.39146 12.8335 1.90846 11.4265 2.7858 10.744L12.5671 3.13615ZM6.5623 10.7627C6.82946 10.9785 6.9998 11.3087 6.9998 11.6785V22.1668H20.9998V11.6785C20.9998 11.3087 21.1701 10.9785 21.4373 10.7627L13.9998 4.97832L6.5623 10.7627Z" fill="black"/>
</svg>
