<svg width="20" height="20" viewBox="0 0 20 20" fill="none" xmlns="http://www.w3.org/2000/svg">
<path d="M11.5789 5.17593e-09C12.3844 -4.7336e-05 13.1595 0.324659 13.7455 0.907681C14.3316 1.4907 14.6843 2.28797 14.7316 3.13636L14.7368 3.33182V7.77425H16.8421C17.6159 7.77412 18.3629 8.07376 18.9411 8.6163C19.5194 9.15884 19.8887 9.9065 19.9789 10.7174L19.9947 10.9106L20 11.1061L19.9789 11.3238L18.92 16.9123C18.5189 18.7182 17.3389 20.0176 15.9621 19.9998L15.7895 19.9909H7.36842C7.1106 19.9909 6.86175 19.891 6.66908 19.7103C6.47641 19.5295 6.35332 19.2804 6.32316 19.0103L6.31579 18.8803L6.31684 8.28957C6.31703 8.09481 6.36576 7.90353 6.45814 7.73492C6.55052 7.5663 6.6833 7.42628 6.84316 7.3289C7.2919 7.05523 7.6699 6.66923 7.9438 6.20495C8.2177 5.74068 8.37908 5.21242 8.41368 4.66677L8.42105 4.44243V3.33182C8.42105 2.44817 8.75376 1.60071 9.34598 0.975868C9.9382 0.35103 10.7414 5.17593e-09 11.5789 5.17593e-09ZM3.15789 7.77425C3.41572 7.77429 3.66457 7.87416 3.85723 8.05492C4.0499 8.23568 4.17299 8.48476 4.20316 8.75492L4.21053 8.88486V18.8803C4.21049 19.1524 4.11584 19.4149 3.94451 19.6182C3.77319 19.8215 3.53711 19.9513 3.28105 19.9832L3.15789 19.9909H2.10526C1.57413 19.9911 1.06256 19.7795 0.673108 19.3984C0.283653 19.0174 0.0450983 18.4951 0.00526338 17.9363L1.05545e-07 17.7697V9.99547C-0.000167978 9.43508 0.200428 8.89534 0.561576 8.48443C0.922724 8.07353 1.41773 7.82183 1.94737 7.77981L2.10526 7.77425H3.15789Z" fill="#FFCC00" fill-opacity="0.5"/>
<path d="M11.5789 0.5H11.579C12.2485 0.499961 12.8978 0.769601 13.3929 1.26215C13.8872 1.75392 14.1898 2.43097 14.232 3.15728L14.2368 3.33855V7.77425V8.27425H14.7368L16.8421 8.27425L16.8422 8.27425C17.4854 8.27414 18.1109 8.523 18.599 8.98094C19.0861 9.43799 19.4024 10.0721 19.4812 10.7657L19.4953 10.9377L19.4993 11.0887L19.4835 11.253L18.4302 16.8114C18.0509 18.5085 17.0003 19.5072 15.9775 19.5L15.8152 19.4916L15.8023 19.4909H15.7895H7.36849C7.36847 19.4909 7.36844 19.4909 7.36842 19.4909C7.24113 19.4909 7.11371 19.4418 7.01119 19.3456C6.91053 19.2512 6.84101 19.1174 6.82148 18.9665L6.81579 18.8662L6.81684 8.29006C6.81695 8.17797 6.84507 8.06928 6.89664 7.97516C6.94813 7.88117 7.0203 7.80646 7.10327 7.75591L7.10349 7.75578C7.62418 7.43824 8.05994 6.99212 8.37444 6.45901C8.68889 5.92602 8.87317 5.32138 8.91268 4.69842L8.91317 4.69081L8.91341 4.68319L8.92078 4.45884L8.92105 4.45064V4.44243V3.33182C8.92105 2.57238 9.20724 1.84909 9.70888 1.31982C10.2097 0.791467 10.8829 0.5 11.5789 0.5ZM2.10526 19.4909H2.1051C1.70846 19.4911 1.32145 19.3333 1.02278 19.041C0.725446 18.7501 0.538058 18.3472 0.504683 17.91L0.5 17.7618V9.99547L0.5 9.99532C0.499867 9.55322 0.658349 9.13171 0.937135 8.81452C1.21288 8.50078 1.58469 8.31289 1.97674 8.27908L2.11408 8.27425H3.15783C3.15785 8.27425 3.15787 8.27425 3.15789 8.27425C3.28519 8.27429 3.41261 8.32338 3.51513 8.41956C3.61578 8.51399 3.6853 8.64779 3.70484 8.79873L3.71053 8.89902V18.8803C3.71053 18.8803 3.71053 18.8803 3.71053 18.8803C3.71049 19.0374 3.65561 19.1851 3.56219 19.296C3.47234 19.4026 3.35433 19.4669 3.23182 19.4853L3.14214 19.4909H2.10526Z" stroke="black" stroke-opacity="0.1"/>
</svg>
