<svg width="20" height="20" viewBox="0 0 20 20" fill="none" xmlns="http://www.w3.org/2000/svg">
<path d="M11.5789 1H11.579C12.1125 0.999969 12.6361 1.21454 13.0403 1.61662C13.4431 2.01735 13.6955 2.57443 13.7324 3.17882L13.7368 3.34528V7.77425V8.77425H14.7368L16.8421 8.77425L16.8423 8.77425C17.355 8.77417 17.859 8.97224 18.2569 9.34557C18.6531 9.71737 18.9163 10.2381 18.9836 10.8147L18.9958 10.9648L18.9987 11.0713L18.988 11.1822L17.9405 16.7101C17.5839 18.2947 16.6648 18.9976 15.9909 19L15.8409 18.9923L15.8152 18.9909H15.7895H7.36868C7.36842 18.9909 7.36781 18.9907 7.36678 18.9903C7.36471 18.9895 7.35982 18.9871 7.35329 18.981C7.34122 18.9697 7.32603 18.9472 7.31932 18.9142L7.31579 18.852L7.31684 8.29055C7.31684 8.29046 7.31684 8.29038 7.31684 8.2903C7.31691 8.26098 7.32442 8.23497 7.33514 8.21539C7.34575 8.19603 7.3573 8.18663 7.36339 8.18293L7.36383 8.18266C7.95645 7.82124 8.44997 7.31502 8.80509 6.71307C9.16008 6.11135 9.36726 5.43035 9.41168 4.73008L9.41265 4.71485L9.41315 4.6996L9.42051 4.47526L9.42105 4.45885V4.44243V3.33182C9.42105 2.6966 9.66072 2.09747 10.0718 1.66378C10.4811 1.2319 11.0245 1 11.5789 1ZM2.10526 18.9909H2.10493C1.84279 18.991 1.58034 18.887 1.37245 18.6836C1.16672 18.4824 1.03059 18.198 1.00405 17.8822L1 17.7539V9.99547V9.99517C0.999903 9.67136 1.11627 9.36809 1.31269 9.1446L0.561576 8.48443L1.3127 9.1446C1.50331 8.92773 1.75271 8.80329 2.00832 8.77828L2.12287 8.77425H3.15763C3.1579 8.7743 3.15851 8.77445 3.15954 8.77486C3.16161 8.77569 3.16649 8.77808 3.17302 8.7842L3.85723 8.05492L3.17302 8.7842C3.1851 8.79553 3.20029 8.81794 3.207 8.85097L3.21053 8.91319V18.8802C3.21053 18.8802 3.21053 18.8803 3.21053 18.8803C3.21049 18.9225 3.1954 18.9553 3.17986 18.9737C3.17271 18.9822 3.16652 18.9866 3.16285 18.9886L3.12635 18.9909H2.10526Z" stroke="black" stroke-opacity="0.3" stroke-width="2"/>
</svg>
