<svg width="81" height="81" viewBox="0 0 81 81" fill="none" xmlns="http://www.w3.org/2000/svg">
<path fill-rule="evenodd" clip-rule="evenodd" d="M67.9418 10.665C66.0431 8.76688 63.4682 7.70056 60.7834 7.70056C58.0986 7.70056 55.5238 8.76688 53.625 10.665L51.2389 13.0545L67.9452 29.7608L70.3279 27.3746C71.2683 26.4344 72.0142 25.3182 72.5232 24.0897C73.0321 22.8611 73.2941 21.5444 73.2941 20.2146C73.2941 18.8848 73.0321 17.5681 72.5232 16.3395C72.0142 15.111 71.2683 13.9947 70.3279 13.0545L67.9418 10.665ZM63.1695 34.533L46.4633 17.8268L15.7845 48.5089C15.1132 49.1804 14.6442 50.0271 14.4312 50.9524L10.9583 65.988C10.8289 66.5462 10.8437 67.1282 11.0014 67.679C11.1591 68.2299 11.4544 68.7315 11.8596 69.1367C12.2648 69.5419 12.7664 69.8372 13.3173 69.9949C13.8682 70.1526 14.4501 70.1674 15.0083 70.038L30.0473 66.5685C30.9714 66.3549 31.8169 65.8859 32.4874 65.2151L63.1695 34.533Z" fill="white"/>
</svg>
