<svg fill="currentColor" width="28" height="28" viewBox="0 0 28 28" fill="none" xmlns="http://www.w3.org/2000/svg">
<path fill-rule="evenodd" clip-rule="evenodd" d="M14.0002 3.53983C13.9333 3.6565 13.8559 3.79416 13.768 3.95283L13.6537 4.15816L13.6268 4.20483C13.5358 4.37283 13.3842 4.6505 13.131 4.843C12.8732 5.039 12.5617 5.10666 12.3808 5.14633L12.3295 5.15683L12.1078 5.207C11.9025 5.25366 11.7357 5.291 11.5945 5.32716C11.6867 5.44033 11.8068 5.58266 11.9632 5.76583L12.1148 5.94316L12.1498 5.98283C12.2758 6.12866 12.4788 6.362 12.5733 6.66533C12.6667 6.964 12.634 7.272 12.6142 7.46566L12.6083 7.5205L12.585 7.75733L12.536 8.294C12.6585 8.24033 12.7962 8.17733 12.9607 8.1015L13.1695 8.00583L13.2162 7.9825C13.3842 7.90433 13.6747 7.76666 14.0002 7.76666C14.3257 7.76666 14.6162 7.90433 14.7842 7.98366L14.8308 8.00583L15.0397 8.1015C15.2022 8.17772 15.3438 8.24189 15.4643 8.294L15.4153 7.75733L15.392 7.5205L15.3862 7.46566C15.3663 7.27083 15.3337 6.964 15.427 6.66533C15.5203 6.362 15.7245 6.12866 15.8505 5.98283L15.8855 5.94316L16.0372 5.76583C16.1935 5.58266 16.3137 5.44033 16.4058 5.32716C16.2647 5.29216 16.0978 5.25366 15.8925 5.207L15.6708 5.15683L15.6195 5.14516C15.4387 5.10666 15.1272 5.039 14.8693 4.84183C14.6162 4.6505 14.4645 4.37283 14.3735 4.206L14.3467 4.15816L14.2323 3.95283C14.1452 3.79416 14.0678 3.6565 14.0002 3.53983ZM12.8498 2.10016C13.0505 1.83766 13.4145 1.4585 14.0002 1.4585C14.5858 1.4585 14.9498 1.83766 15.1505 2.10016C15.343 2.34983 15.5355 2.69633 15.7338 3.05216L15.7607 3.1L15.875 3.3065L15.9415 3.42316L16.057 3.45L16.2787 3.50016L16.3347 3.51183C16.7162 3.59933 17.0965 3.6845 17.3882 3.8C17.7102 3.92716 18.1465 4.17333 18.3157 4.71583C18.4813 5.24666 18.2725 5.697 18.0905 5.9875C17.9213 6.25583 17.6647 6.5545 17.4022 6.86133L17.3672 6.90216L17.2155 7.08066L17.1198 7.19383C17.1222 7.23583 17.128 7.28483 17.1338 7.35133L17.1572 7.58816L17.1618 7.64183C17.2015 8.0525 17.24 8.44916 17.226 8.7665C17.212 9.10016 17.1327 9.60416 16.68 9.946C16.2133 10.3007 15.7 10.2237 15.3733 10.1292C15.0723 10.044 14.7165 9.8795 14.3583 9.715L14.3082 9.69166L14.0982 9.59483L14.0002 9.54933L13.901 9.596L13.6922 9.69166L13.6408 9.715C13.2838 9.8795 12.9292 10.044 12.627 10.1292C12.3003 10.2225 11.787 10.3007 11.3203 9.946C10.8688 9.60416 10.7883 9.10016 10.7743 8.76766C10.7603 8.44916 10.7977 8.0525 10.8385 7.64183L10.8432 7.58816L10.8665 7.35133L10.8817 7.19383L10.7848 7.08066L10.6332 6.90216L10.5982 6.86133C10.3357 6.5545 10.079 6.25466 9.90983 5.98633C9.72783 5.697 9.519 5.24666 9.68466 4.71466C9.85266 4.1745 10.2902 3.92716 10.6122 3.8C10.9038 3.6845 11.2842 3.59933 11.6657 3.513L11.7205 3.50133L11.9433 3.45L12.06 3.42316L12.1253 3.3065L12.2397 3.1L12.2665 3.05216C12.4648 2.69633 12.6573 2.34983 12.8498 2.10016ZM12.7763 10.7918H15.224C15.9998 10.7918 16.6683 10.7918 17.2038 10.8642C17.7778 10.9412 18.3273 11.115 18.773 11.5607C19.2187 12.0063 19.3925 12.5558 19.4695 13.1298C19.5418 13.6653 19.5418 14.3338 19.5418 15.1097V17.9867C19.7332 17.9283 19.9303 17.891 20.1298 17.8642C20.6653 17.7918 21.3338 17.7918 22.1097 17.7918H22.224C22.9998 17.7918 23.6683 17.7918 24.2038 17.8642C24.7778 17.9412 25.3273 18.115 25.773 18.5607C26.2187 19.0063 26.3925 19.5558 26.4695 20.1298C26.5418 20.6653 26.5418 21.3338 26.5418 22.1097V25.6668C26.5418 25.8989 26.4496 26.1215 26.2855 26.2855C26.1215 26.4496 25.8989 26.5418 25.6668 26.5418C25.4348 26.5418 25.2122 26.4496 25.0481 26.2855C24.884 26.1215 24.7918 25.8989 24.7918 25.6668V22.1668C24.7918 21.3175 24.7895 20.7668 24.7358 20.3632C24.6845 19.984 24.6017 19.865 24.5352 19.7985C24.4687 19.732 24.3497 19.6492 23.9705 19.5978C23.5657 19.5442 23.0162 19.5418 22.1668 19.5418C21.3175 19.5418 20.7668 19.5442 20.3632 19.5978C19.984 19.6492 19.865 19.732 19.7985 19.7985C19.732 19.865 19.6492 19.984 19.5978 20.3632C19.5442 20.768 19.5418 21.3175 19.5418 22.1668V25.6668C19.5418 25.8989 19.4496 26.1215 19.2855 26.2855C19.1215 26.4496 18.8989 26.5418 18.6668 26.5418C18.4348 26.5418 18.2122 26.4496 18.0481 26.2855C17.884 26.1215 17.7918 25.8989 17.7918 25.6668V15.1668C17.7918 14.3175 17.7895 13.7668 17.7358 13.3632C17.6845 12.984 17.6017 12.865 17.5352 12.7985C17.4687 12.732 17.3497 12.6492 16.9705 12.5978C16.5657 12.5442 16.0162 12.5418 15.1668 12.5418H12.8335C11.9842 12.5418 11.4335 12.5442 11.0298 12.5978C10.6507 12.6492 10.5317 12.732 10.4652 12.7985C10.3987 12.865 10.3158 12.984 10.2645 13.3632C10.2108 13.768 10.2085 14.3175 10.2085 15.1668V25.6668C10.2085 25.8989 10.1163 26.1215 9.95221 26.2855C9.78812 26.4496 9.56556 26.5418 9.3335 26.5418C9.10143 26.5418 8.87887 26.4496 8.71478 26.2855C8.55068 26.1215 8.4585 25.8989 8.4585 25.6668C8.4585 24.8175 8.45616 24.2668 8.4025 23.8632C8.35116 23.484 8.26833 23.365 8.20183 23.2985C8.13533 23.232 8.01633 23.1492 7.63716 23.0978C7.23233 23.0442 6.68283 23.0418 5.8335 23.0418C4.98416 23.0418 4.4335 23.0442 4.02983 23.0978C3.65066 23.1492 3.53166 23.232 3.46516 23.2985C3.39866 23.365 3.31583 23.484 3.2645 23.8632C3.21083 24.268 3.2085 24.8175 3.2085 25.6668C3.2085 25.8989 3.11631 26.1215 2.95221 26.2855C2.78812 26.4496 2.56556 26.5418 2.3335 26.5418C2.10143 26.5418 1.87887 26.4496 1.71478 26.2855C1.55068 26.1215 1.4585 25.8989 1.4585 25.6668V25.6085C1.4585 24.8338 1.4585 24.1653 1.53083 23.6298C1.60783 23.0558 1.78166 22.5063 2.22733 22.0607C2.673 21.615 3.22366 21.4412 3.7965 21.3642C4.332 21.2918 5.0005 21.2918 5.77633 21.2918H5.89066C6.6665 21.2918 7.335 21.2918 7.8705 21.3642C8.07038 21.3898 8.26638 21.4307 8.4585 21.4867V15.1097C8.4585 14.3338 8.4585 13.6653 8.53083 13.1298C8.60783 12.5558 8.78166 12.0063 9.22733 11.5607C9.673 11.115 10.2237 10.9412 10.7965 10.8642C11.332 10.7918 12.0005 10.7918 12.7763 10.7918Z" fill="black"/>
</svg>
