<svg width="24" height="24" viewBox="0 0 24 24" fill="none" xmlns="http://www.w3.org/2000/svg">
<path d="M10.8335 9.66683H13.1668C14.8165 9.66683 15.6413 9.66683 16.1535 10.1802C16.6668 10.6923 16.6668 11.5172 16.6668 13.1668V20.1668C16.6668 18.5172 16.6668 17.6923 17.1802 17.1802C17.6912 16.6668 18.516 16.6668 20.1668 16.6668C21.8177 16.6668 22.6413 16.6668 23.1535 17.1802C23.6668 17.6923 23.6668 18.5172 23.6668 20.1668V23.6668H0.333496C0.333496 22.0172 0.333496 21.1923 0.84683 20.6802C1.35783 20.1668 2.18266 20.1668 3.8335 20.1668C5.48433 20.1668 6.308 20.1668 6.82016 20.6802C7.3335 21.1912 7.3335 22.016 7.3335 23.6668V13.1668C7.3335 11.5172 7.3335 10.6923 7.84683 10.1802C8.35783 9.66683 9.18266 9.66683 10.8335 9.66683ZM11.0038 1.527C11.4472 0.730163 11.6688 0.333496 12.0002 0.333496C12.3315 0.333496 12.5532 0.730163 12.9965 1.527L13.1108 1.73233C13.2368 1.95866 13.2998 2.07066 13.3978 2.14533C13.497 2.22 13.6195 2.248 13.8645 2.30283L14.0862 2.35416C14.9472 2.549 15.3777 2.64583 15.4803 2.97483C15.583 3.30383 15.289 3.648 14.7022 4.334L14.5505 4.51133C14.3837 4.70616 14.2997 4.803 14.2623 4.92433C14.225 5.04566 14.2378 5.17516 14.2623 5.43533L14.2857 5.67216C14.3743 6.588 14.4187 7.0465 14.1515 7.2495C13.8832 7.45366 13.4795 7.267 12.6733 6.896L12.4657 6.80033C12.2358 6.69533 12.1215 6.64166 12.0002 6.64166C11.8788 6.64166 11.7645 6.69533 11.5347 6.80033L11.327 6.896C10.5208 7.267 10.1172 7.45366 9.84883 7.2495C9.5805 7.0465 9.626 6.588 9.71466 5.67216L9.738 5.43533C9.7625 5.17516 9.77533 5.04566 9.738 4.92433C9.70066 4.803 9.61666 4.70616 9.44983 4.51133L9.29816 4.334C8.71133 3.648 8.41733 3.305 8.52 2.97483C8.62266 2.64583 9.05316 2.549 9.91416 2.35416L10.1358 2.30283C10.3808 2.248 10.5033 2.22116 10.6025 2.14533C10.7005 2.07066 10.7635 1.95866 10.8895 1.73233L11.0038 1.527Z" fill="black"/>
</svg>
